<?xml version="1.0" encoding="utf-8"?><svg version="1.1" id="Layer_1" xmlns="http://www.w3.org/2000/svg" xmlns:xlink="http://www.w3.org/1999/xlink" x="0px" y="0px" viewBox="0 0 122.88 122.88" style="enable-background:new 0 0 122.88 122.88" xml:space="preserve"><style type="text/css"><![CDATA[
	.st0{fill:#EA9901;}
	.st1{fill:#FFED33;}
	.st2{fill-rule:evenodd;clip-rule:evenodd;fill:#FAC900;}
	.st3{fill-rule:evenodd;clip-rule:evenodd;fill:#D49000;}
]]></style><g><path class="st1" d="M61.44,0c16.97,0,32.33,6.88,43.44,18c11.12,11.12,18,26.48,18,43.44c0,16.96-6.88,32.33-18,43.44 c-11.12,11.12-26.48,18-43.44,18S29.11,116,18,104.88C6.88,93.77,0,78.41,0,61.44C0,44.47,6.88,29.11,18,18 C29.11,6.88,44.47,0,61.44,0L61.44,0z"/><path class="st3" d="M61.44,8.74c29.11,0,52.7,23.6,52.7,52.7c0,0.31-0.01,0.61-0.01,0.92c-0.49-27.67-23.07-49.95-50.85-49.95 c-28.09,0-50.86,22.77-50.86,50.86c0,27.79,22.28,50.36,49.95,50.85c-0.31,0-0.61,0.01-0.92,0.01c-29.11,0-52.7-23.59-52.7-52.7 C8.74,32.33,32.33,8.74,61.44,8.74L61.44,8.74z"/><path class="st2" d="M63.28,12.41c28.09,0,50.86,22.77,50.86,50.86c0,28.09-22.77,50.86-50.86,50.86 c-28.09,0-50.86-22.77-50.86-50.86C12.41,35.19,35.19,12.41,63.28,12.41L63.28,12.41z"/><path class="st0" d="M83.83,47.06l-14.09,2.26c-0.71-1.82-1.34-3.07-1.91-3.76c-0.57-0.7-1.5-1.41-2.81-2.12v11.15 c7.65,2.09,12.76,4.29,15.34,6.59c3.39,3.12,5.09,7.05,5.09,11.85c0,2.79-0.61,5.37-1.83,7.7c-1.23,2.34-2.79,4.29-4.68,5.87 c-1.9,1.57-3.92,2.7-6.06,3.41c-2.14,0.71-4.76,1.12-7.86,1.25v7.26h-5.5v-7.26c-3.7-0.33-6.71-0.93-9.02-1.82 c-2.3-0.88-4.3-2.11-5.97-3.67c-1.66-1.55-2.97-3.24-3.87-5.04c-0.9-1.8-1.59-3.99-2.04-6.54l15.25-1.8 c0.45,2.53,1.07,4.36,1.84,5.47c0.76,1.12,2.04,2.12,3.81,2.99V67.21c-5.11-1.43-8.72-2.68-10.85-3.74 c-2.13-1.05-3.97-2.75-5.53-5.08s-2.35-5.16-2.35-8.5c0-4.58,1.57-8.41,4.71-11.48c3.15-3.08,7.82-4.79,14.02-5.12v-3.79h5.5v3.79 c5.65,0.35,9.97,1.71,12.96,4.08C80.96,39.73,82.92,42.96,83.83,47.06L83.83,47.06z M59.53,43.25c-1.63,0.54-2.75,1.21-3.38,2 c-0.63,0.79-0.96,1.74-0.96,2.82c0,1.12,0.32,2.11,0.97,2.94c0.65,0.84,1.77,1.54,3.37,2.11V43.25L59.53,43.25z M65.02,81.23 c2.14-0.49,3.7-1.3,4.69-2.42c0.99-1.12,1.5-2.38,1.5-3.76c0-1.21-0.43-2.33-1.26-3.36c-0.84-1.01-2.49-1.96-4.93-2.83V81.23 L65.02,81.23z"/><path class="st1" d="M81.19,45.01L67.1,47.22c-0.71-1.78-1.34-3.01-1.91-3.69c-0.57-0.68-1.5-1.38-2.81-2.08v10.93 c7.65,2.05,12.76,4.21,15.34,6.46c3.39,3.06,5.09,6.91,5.09,11.61c0,2.74-0.61,5.26-1.83,7.55c-1.23,2.3-2.79,4.21-4.68,5.75 c-1.9,1.54-3.92,2.64-6.06,3.34c-2.14,0.7-4.76,1.1-7.86,1.22v7.12h-5.49v-7.12c-3.7-0.32-6.71-0.92-9.02-1.78 c-2.3-0.86-4.3-2.06-5.97-3.6c-1.66-1.52-2.97-3.17-3.87-4.94c-0.9-1.77-1.59-3.91-2.04-6.41l15.25-1.77 c0.45,2.48,1.07,4.27,1.84,5.37c0.76,1.1,2.04,2.08,3.81,2.93V64.75c-5.11-1.41-8.72-2.63-10.85-3.66s-3.97-2.7-5.53-4.98 c-1.56-2.28-2.35-5.06-2.35-8.33c0-4.49,1.57-8.24,4.71-11.25c3.15-3.02,7.82-4.7,14.02-5.02V27.8h5.49v3.72 c5.65,0.35,9.97,1.68,12.96,4C78.32,37.82,80.28,40.98,81.19,45.01L81.19,45.01z M56.88,41.26c-1.63,0.53-2.75,1.19-3.38,1.96 c-0.63,0.77-0.95,1.7-0.95,2.76c0,1.1,0.32,2.06,0.97,2.88c0.65,0.83,1.77,1.51,3.37,2.06V41.26L56.88,41.26z M62.38,78.49 c2.14-0.48,3.7-1.28,4.7-2.37s1.5-2.33,1.5-3.69c0-1.19-0.42-2.28-1.26-3.29c-0.84-0.99-2.49-1.92-4.93-2.77V78.49L62.38,78.49z"/></g></svg>