<svg width="580" height="400" xmlns="http://www.w3.org/2000/svg">
 <!-- Created with UXWing SVG Editor - https://uxwing.com/svg-icon-editor/ -->

 <g>
  <title>background</title>
  <rect fill="#fff" id="canvas_background" height="402" width="582" y="-1" x="-1"/>
  <g display="none" overflow="visible" y="0" x="0" height="100%" width="100%" id="canvasGrid">
   <rect fill="url(#gridpattern)" stroke-width="0" y="0" x="0" height="100%" width="100%"/>
  </g>
 </g>
 <g>
  <title>Layer 1</title>
  <style transform="matrix(4.741862439550459,0,0,4.741862439550459,0,0) " type="text/css">.st0{fill-rule:evenodd;clip-rule:evenodd;}</style>
  <g stroke="null" id="svg_7">
   <g stroke="null" transform="matrix(2.619066897583936,0,0,3.008464019543883,61.32630024237751,66.1288301272424) " id="svg_5">
    <path fill="#FFF5FF" stroke="null" id="svg_6" d="m85.752978,-3.750416c-0.27,18.29 2.44,38.64 5.64,59.28l2.57,0l-2.12,3.12c2.29,7.9 4.67,14.96 7.25,19.99l2.78,0l0,5.79l12.24,21l-12.75,0c-2.02,-21.25 -34.44,-21.37 -35.75,0.01l-12.74,0l12.29,-21.06l0,-5.74l2.52,0c3.53,-6.73 5.83,-13.46 7.35,-20.19l-2.01,-2.82l2.52,-0.05c3.23,-20.04 5.36,-39.95 5.74,-59.31l-0.37,-0.1c-0.08,-0.3 -0.09,-0.6 -0.07,-0.9l-0.3,-0.2c0,-0.29 0.01,-0.54 0.09,-0.81c-0.17,-0.09 -0.34,-0.2 -0.47,-0.37c-0.03,-0.26 -0.01,-0.51 0.04,-0.76c-0.15,-0.25 -0.29,-0.58 -0.4,-1l1.04,-1.06c-0.15,-0.44 -0.29,-0.9 -0.18,-1.34c0.45,-0.41 0.93,-0.77 1.42,-1.09l0,-0.37c0.23,-0.22 0.47,-0.4 0.72,-0.56l0,-4.36l0.66,-0.79l0.64,0.8l0,4.31c0.27,0.17 0.54,0.37 0.79,0.6l0,0.37c0.49,0.32 0.97,0.68 1.42,1.09c0.11,0.44 -0.03,0.9 -0.18,1.34l1.04,1.06c-0.11,0.43 -0.25,0.75 -0.4,1c0.05,0.26 0.07,0.51 0.04,0.76c-0.13,0.17 -0.29,0.28 -0.47,0.37c0.08,0.27 0.09,0.52 0.09,0.81l-0.3,0.2c0.02,0.3 0.01,0.6 -0.07,0.9l-0.31,0.08l0,0zm-9.12,82.62l3.19,-14.19l7.25,0l3.27,14.19l-13.71,0l0,0z" class="st0"/>
   </g>
  </g>
 </g>
</svg>