<svg xmlns="http://www.w3.org/2000/svg" viewBox="0 0 121.87 122.88"><defs><style>.a,.b{fill-rule:evenodd;}.b,.c{fill:#f9e966;}</style></defs><title>helpful-tips</title><path class="a" d="M96.06.06a25.69,25.69,0,0,1,25.81,25.81V70.63A25.69,25.69,0,0,1,96.06,96.44H77c-10.79,13.67-24.83,21.89-41.44,26.32a3.67,3.67,0,0,1-3.66-1.1,3.61,3.61,0,0,1,.31-5.14,39.19,39.19,0,0,0,5.34-5.65c3.22-4.27,5.11-9.44,6.71-14.51H25.79A25.71,25.71,0,0,1,0,70.55V25.81A25.7,25.7,0,0,1,25.79,0C50.51,0,71.33.06,96.06.06Z"/><path class="b" d="M71.73,35a17.16,17.16,0,0,1,6.52,8.79,18,18,0,0,1,.83,6.46,18.49,18.49,0,0,1-2,7.35c-2,3.91-6.17,7.93-9,11.71-.83-.24-14.72.86-16.81,1A21.9,21.9,0,0,0,48,63a26.64,26.64,0,0,1-3.95-6.79,19.61,19.61,0,0,1-1.23-8.57A19.92,19.92,0,0,1,46,38.82a17.31,17.31,0,0,1,9-6.63,18.45,18.45,0,0,1,8.76-.5,20,20,0,0,1,8,3.35Zm-9,46.39a7.92,7.92,0,0,1-3.55.76,7.07,7.07,0,0,1-5.48-2.74L66,78.66a8.33,8.33,0,0,1-3.26,2.77Zm4.49-5.7-14.9.94-.2-.6L51.58,73l16.11-1a14.65,14.65,0,0,1-.51,3.76Z"/><path class="c" d="M81.13,30.45a2.61,2.61,0,1,1-3.8-3.57l3.39-3.66a2.61,2.61,0,0,1,3.81,3.58l-3.4,3.65Z"/><path class="c" d="M43.7,26.88a2.61,2.61,0,1,1-3.8,3.57L36.51,26.8a2.61,2.61,0,0,1,3.8-3.58l3.39,3.66Z"/><path class="c" d="M87.75,46.44a2.61,2.61,0,0,1-1.88-4.86l4.92-1.39a2.61,2.61,0,1,1,1.88,4.86l-4.92,1.39Z"/><path class="c" d="M36,41.64a2.62,2.62,0,1,1-2,4.85L29.16,45a2.62,2.62,0,0,1,2-4.85L36,41.64Z"/><path class="c" d="M64.29,22a2.61,2.61,0,1,1-5.21.14l-.19-5.33a2.61,2.61,0,1,1,5.22-.14L64.29,22Z"/><path class="c" d="M84.16,62.11a2.61,2.61,0,1,1,1-5.13l5.21.76a2.61,2.61,0,1,1-1,5.13l-5.21-.76Z"/><path class="c" d="M35.13,57a2.61,2.61,0,0,1,1,5.13l-5.22.76a2.61,2.61,0,1,1-1-5.13L35.13,57Z"/></svg>